<svg width="229" height="59" viewBox="0 0 229 59" fill="none" xmlns="http://www.w3.org/2000/svg">
<rect x="5" y="9" width="223" height="49" rx="13" fill="white" stroke="#0AB7AD" stroke-width="2"/>
<path d="M21.5625 1.81641C21.753 1.47368 22.247 1.47368 22.4375 1.81641L24.3848 5.32324C24.6072 5.72371 25.0002 6.00076 25.4521 6.0752L29.4795 6.7373C29.8837 6.80379 30.0408 7.30141 29.748 7.58789L26.9629 10.3105C26.6178 10.6479 26.4551 11.1313 26.5273 11.6084L27.1045 15.415C27.1639 15.8095 26.7599 16.1111 26.3984 15.9424L22.6348 14.1846C22.2325 13.9967 21.7675 13.9967 21.3652 14.1846L17.6016 15.9424C17.2401 16.1111 16.8361 15.8095 16.8955 15.415L17.4727 11.6084C17.5449 11.1313 17.3822 10.6479 17.0371 10.3105L14.252 7.58789C13.9592 7.30141 14.1163 6.80379 14.5205 6.7373L18.5479 6.0752C18.9998 6.00076 19.3928 5.72371 19.6152 5.32324L21.5625 1.81641Z" fill="#C2F1EF" stroke="#0AB7AD"/>
<path d="M6.56543 22.7773C6.75709 22.44 7.24291 22.44 7.43457 22.7773L8.46777 24.5957C8.69258 24.9912 9.08504 25.2628 9.53418 25.335L11.5898 25.666C11.9977 25.7315 12.1548 26.235 11.8564 26.5205L10.4941 27.8223C10.1396 28.161 9.9728 28.6521 10.0479 29.1367L10.3369 31.002C10.3978 31.3952 9.99677 31.6985 9.63477 31.5332L7.62305 30.6152C7.22735 30.4346 6.77264 30.4346 6.37695 30.6152L4.36523 31.5332C4.00323 31.6985 3.60223 31.3952 3.66309 31.002L3.95215 29.1367C4.0272 28.6521 3.86045 28.161 3.50586 27.8223L2.14355 26.5205C1.8452 26.235 2.00228 25.7315 2.41016 25.666L4.46582 25.335C4.91496 25.2628 5.30742 24.9912 5.53223 24.5957L6.56543 22.7773Z" fill="#C2F1EF" stroke="#0AB7AD"/>
</svg>
